<svg width="155" height="55" viewBox="0 0 155 55" fill="none" xmlns="http://www.w3.org/2000/svg">
<g clip-path="url(#clip0_1_2)">
<rect width="155" height="55" fill="white"/>
<rect width="155" height="55" fill="black"/>
<rect x="6" y="6" width="44" height="42" fill="white"/>
<rect x="55" y="6" width="44" height="42" fill="white"/>
<rect x="104" y="6" width="44" height="42" fill="white"/>
<path d="M139.097 23.0085H133.088C132.965 22.1847 132.719 21.4555 132.349 20.821C131.99 20.1771 131.53 19.6278 130.972 19.1733C130.413 18.7188 129.769 18.3731 129.04 18.1364C128.311 17.8996 127.52 17.7812 126.668 17.7812C125.143 17.7812 123.808 18.16 122.662 18.9176C121.526 19.6657 120.64 20.7642 120.006 22.2131C119.371 23.6525 119.054 25.3996 119.054 27.4545C119.054 29.5663 119.371 31.3419 120.006 32.7812C120.65 34.2206 121.54 35.3049 122.676 36.0341C123.822 36.7633 125.143 37.1278 126.639 37.1278C127.473 37.1278 128.244 37.0189 128.955 36.8011C129.674 36.5739 130.318 36.2472 130.886 35.821C131.455 35.3949 131.928 34.8741 132.307 34.2585C132.686 33.6335 132.946 32.9233 133.088 32.1278L139.097 32.1562C138.926 33.5009 138.519 34.7888 137.875 36.0199C137.231 37.2509 136.374 38.3494 135.304 39.3153C134.234 40.2718 132.965 41.0246 131.497 41.5739C130.029 42.1231 128.377 42.3977 126.54 42.3977C123.955 42.3977 121.644 41.8106 119.608 40.6364C117.581 39.4621 115.981 37.7623 114.807 35.5369C113.633 33.3021 113.045 30.608 113.045 27.4545C113.045 24.2917 113.637 21.5975 114.821 19.3722C116.005 17.1468 117.615 15.447 119.651 14.2727C121.687 13.0985 123.983 12.5114 126.54 12.5114C128.216 12.5114 129.769 12.7481 131.199 13.2216C132.629 13.6856 133.898 14.3674 135.006 15.267C136.114 16.1572 137.018 17.2509 137.719 18.5483C138.429 19.8456 138.888 21.3324 139.097 23.0085Z" fill="black"/>
<path d="M17.6136 42V12.9091H29.1335C31.2642 12.9091 33.0398 13.2311 34.4602 13.875C35.8902 14.5095 36.9602 15.3902 37.6705 16.517C38.3807 17.6439 38.7358 18.9318 38.7358 20.3807C38.7358 21.536 38.5085 22.5398 38.054 23.392C37.5994 24.2443 36.9792 24.9403 36.1932 25.4801C35.4072 26.0104 34.517 26.3892 33.5227 26.6165V26.9006C34.6117 26.9574 35.6392 27.2746 36.6051 27.8523C37.571 28.4205 38.357 29.2254 38.9631 30.267C39.5691 31.3087 39.8722 32.5492 39.8722 33.9886C39.8722 35.5227 39.4934 36.8958 38.7358 38.108C37.9877 39.3106 36.8703 40.2623 35.3835 40.9631C33.9062 41.6544 32.0739 42 29.8864 42H17.6136ZM23.5511 37.1136H28.7216C30.483 37.1136 31.7614 36.7775 32.5568 36.1051C33.3617 35.4328 33.7642 34.5379 33.7642 33.4205C33.7642 32.6061 33.5653 31.8816 33.1676 31.2472C32.7699 30.6127 32.2064 30.1155 31.4773 29.7557C30.7481 29.3864 29.8769 29.2017 28.8636 29.2017H23.5511V37.1136ZM23.5511 25.125H28.267C29.1193 25.125 29.8816 24.9735 30.554 24.6705C31.2358 24.358 31.7708 23.9223 32.1591 23.3636C32.5568 22.7955 32.7557 22.1184 32.7557 21.3324C32.7557 20.2623 32.3769 19.3958 31.6193 18.733C30.8712 18.0606 29.7917 17.7244 28.3807 17.7244H23.5511V25.125Z" fill="black"/>
<path d="M17.6136 42V12.9091H29.1335C31.2642 12.9091 33.0398 13.2311 34.4602 13.875C35.8902 14.5095 36.9602 15.3902 37.6705 16.517C38.3807 17.6439 38.7358 18.9318 38.7358 20.3807C38.7358 21.536 38.5085 22.5398 38.054 23.392C37.5994 24.2443 36.9792 24.9403 36.1932 25.4801C35.4072 26.0104 34.517 26.3892 33.5227 26.6165V26.9006C34.6117 26.9574 35.6392 27.2746 36.6051 27.8523C37.571 28.4205 38.357 29.2254 38.9631 30.267C39.5691 31.3087 39.8722 32.5492 39.8722 33.9886C39.8722 35.5227 39.4934 36.8958 38.7358 38.108C37.9877 39.3106 36.8703 40.2623 35.3835 40.9631C33.9062 41.6544 32.0739 42 29.8864 42H17.6136ZM23.5511 37.1136H28.7216C30.483 37.1136 31.7614 36.7775 32.5568 36.1051C33.3617 35.4328 33.7642 34.5379 33.7642 33.4205C33.7642 32.6061 33.5653 31.8816 33.1676 31.2472C32.7699 30.6127 32.2064 30.1155 31.4773 29.7557C30.7481 29.3864 29.8769 29.2017 28.8636 29.2017H23.5511V37.1136ZM23.5511 25.125H28.267C29.1193 25.125 29.8816 24.9735 30.554 24.6705C31.2358 24.358 31.7708 23.9223 32.1591 23.3636C32.5568 22.7955 32.7557 22.1184 32.7557 21.3324C32.7557 20.2623 32.3769 19.3958 31.6193 18.733C30.8712 18.0606 29.7917 17.7244 28.3807 17.7244H23.5511V25.125Z" fill="black"/>
<path d="M66.6136 42V12.9091H78.1335C80.2642 12.9091 82.0398 13.2311 83.4602 13.875C84.8902 14.5095 85.9602 15.3902 86.6705 16.517C87.3807 17.6439 87.7358 18.9318 87.7358 20.3807C87.7358 21.536 87.5085 22.5398 87.054 23.392C86.5994 24.2443 85.9792 24.9403 85.1932 25.4801C84.4072 26.0104 83.517 26.3892 82.5227 26.6165V26.9006C83.6117 26.9574 84.6392 27.2746 85.6051 27.8523C86.571 28.4205 87.357 29.2254 87.9631 30.267C88.5691 31.3087 88.8722 32.5492 88.8722 33.9886C88.8722 35.5227 88.4934 36.8958 87.7358 38.108C86.9877 39.3106 85.8703 40.2623 84.3835 40.9631C82.9062 41.6544 81.0739 42 78.8864 42H66.6136ZM72.5511 37.1136H77.7216C79.483 37.1136 80.7614 36.7775 81.5568 36.1051C82.3617 35.4328 82.7642 34.5379 82.7642 33.4205C82.7642 32.6061 82.5653 31.8816 82.1676 31.2472C81.7699 30.6127 81.2064 30.1155 80.4773 29.7557C79.7481 29.3864 78.8769 29.2017 77.8636 29.2017H72.5511V37.1136ZM72.5511 25.125H77.267C78.1193 25.125 78.8816 24.9735 79.554 24.6705C80.2358 24.358 80.7708 23.9223 81.1591 23.3636C81.5568 22.7955 81.7557 22.1184 81.7557 21.3324C81.7557 20.2623 81.3769 19.3958 80.6193 18.733C79.8712 18.0606 78.7917 17.7244 77.3807 17.7244H72.5511V25.125Z" fill="black"/>
</g>
<defs>
<clipPath id="clip0_1_2">
<rect width="155" height="55" fill="white"/>
</clipPath>
</defs>
</svg>
